<svg xmlns="http://www.w3.org/2000/svg" width="30" height="30" viewBox="0 0 500 500">
  <defs>
    <style>
      .cls-1 {
        fill-rule: evenodd;
      }
    </style>
  </defs>
  <path class="cls-1" d="M250,108.038c20.429-25.346,47.369-44.378,80.076-51.814A130.152,130.152,0,0,1,431.506,75.012c52.03,35.132,65.255,96.619,46.123,154.25C446.48,323.109,340.816,396.9,258.53,442.325l-8.526,4.7-8.528-4.7C159.19,396.9,53.526,323.109,22.369,229.262,3.245,171.631,16.478,110.144,68.5,75.012A130.127,130.127,0,0,1,169.918,56.224C202.633,63.66,229.573,82.692,250,108.038h0Zm0,298.69c72.245-40.912,167.413-107.949,194.161-188.559,14.112-42.5,6.395-87.77-32.409-113.971a94.828,94.828,0,0,0-73.844-13.635c-31.989,7.291-56.348,29.7-72.743,57.349L250,173.478l-15.167-25.566c-16.4-27.652-40.746-50.059-72.75-57.349A94.835,94.835,0,0,0,88.244,104.2c-38.805,26.2-46.515,71.472-32.41,113.971C82.589,298.779,177.749,365.816,250,406.728h0Zm0,20.184c-429.621-237.2-112.459-477.6,0-287.986,112.457-189.612,429.611,50.79,0,287.986h0Z"/>
</svg>
